<?xml version="1.0" standalone="no"?>
<!DOCTYPE svg PUBLIC "-//W3C//DTD SVG 20010904//EN"
 "http://www.w3.org/TR/2001/REC-SVG-20010904/DTD/svg10.dtd">
<svg version="1.0" xmlns="http://www.w3.org/2000/svg"
 width="500.000000pt" height="500.000000pt" viewBox="0 0 500.000000 500.000000"
 preserveAspectRatio="xMidYMid meet">

<g transform="translate(0.000000,500.000000) scale(0.100000,-0.100000)"
fill="#000000" stroke="none">
<path d="M2356 4434 c-9 -24 -7 -54 4 -54 6 0 10 -5 10 -11 0 -6 -6 -9 -14 -6
-23 9 -26 -67 -32 -780 -4 -370 -9 -673 -11 -673 -2 0 -32 9 -66 19 -222 70
-508 82 -745 31 -92 -20 -199 -53 -237 -73 -11 -6 -22 -12 -25 -12 -15 -2 -70
-31 -70 -37 0 -5 -7 -8 -15 -8 -23 0 -65 -22 -59 -31 3 -5 -3 -9 -14 -9 -10 0
-27 -9 -37 -20 -10 -11 -22 -17 -26 -14 -9 5 -13 -17 -10 -43 1 -7 -5 -13 -14
-13 -9 0 -13 5 -10 10 9 15 -8 12 -31 -5 -20 -15 -17 -17 35 -19 16 0 27 2 24
7 -2 4 1 7 8 7 8 0 7 5 -2 16 -12 15 -11 16 8 10 15 -5 24 -2 31 9 6 12 16 14
35 10 15 -4 27 -11 27 -16 0 -12 68 -29 118 -29 23 0 42 -4 42 -10 0 -5 11
-10 24 -10 14 0 28 -4 31 -10 3 -5 14 -10 23 -10 10 0 24 -9 32 -20 8 -11 22
-20 32 -20 10 0 18 -4 18 -10 0 -5 7 -10 16 -10 14 0 44 -22 44 -33 0 -9 58
-67 67 -67 5 0 15 -10 23 -22 8 -11 23 -28 33 -37 9 -8 17 -21 17 -27 0 -7 3
-14 8 -16 4 -1 23 -34 42 -73 19 -38 38 -71 43 -73 4 -2 7 -10 7 -18 0 -8 5
-14 10 -14 6 0 10 -22 10 -49 0 -30 5 -51 12 -53 18 -6 18 -310 1 -315 -7 -3
-13 -21 -13 -40 0 -20 -3 -33 -7 -30 -10 11 -29 -24 -43 -80 -8 -29 -17 -53
-22 -53 -4 0 -8 -9 -8 -20 0 -11 -4 -20 -10 -20 -5 0 -10 -9 -10 -20 0 -11 -4
-20 -10 -20 -5 0 -10 -9 -10 -20 0 -11 -7 -20 -15 -20 -9 0 -51 -36 -95 -80
-65 -66 -85 -80 -111 -80 -22 0 -32 -5 -36 -20 -3 -11 -14 -20 -24 -20 -11 0
-19 -4 -19 -10 0 -5 -20 -10 -44 -10 -25 0 -48 -5 -51 -10 -3 -6 -19 -10 -36
-10 -16 0 -29 -4 -29 -10 0 -5 -9 -10 -19 -10 -11 0 -22 -6 -25 -12 -5 -11 -7
-11 -12 0 -4 8 -35 12 -104 12 -55 0 -102 4 -105 10 -3 6 -30 10 -60 10 -30 0
-57 4 -60 10 -3 5 -17 10 -31 10 -13 0 -24 5 -24 10 0 6 -8 10 -18 10 -10 0
-24 9 -32 20 -8 11 -22 20 -32 20 -10 0 -23 9 -30 20 -7 11 -21 20 -30 20 -10
0 -18 5 -18 10 0 6 -9 10 -20 10 -11 0 -20 5 -20 10 0 6 -9 10 -19 10 -22 0
-31 11 -46 55 -6 17 -16 29 -23 27 -7 -1 -18 10 -24 25 -7 16 -18 31 -25 36
-7 4 -9 15 -6 24 4 10 2 14 -5 9 -14 -9 -23 7 -24 45 -1 16 -4 25 -8 19 -4 -7
-11 -10 -16 -8 -11 4 -26 -224 -18 -272 3 -19 8 -51 10 -70 24 -200 114 -440
232 -615 150 -223 333 -386 571 -509 238 -122 539 -182 788 -157 390 39 675
172 939 435 180 181 287 351 364 585 78 235 74 151 77 1511 l3 1215 328 6
c297 5 333 8 389 27 84 29 159 69 214 114 26 21 51 38 55 38 5 0 20 16 34 34
14 19 28 32 33 29 4 -2 7 0 7 5 0 5 14 25 30 43 17 19 28 42 26 51 -2 10 1 21
6 25 7 4 8 1 3 -7 -5 -9 -4 -11 3 -6 7 4 12 14 12 22 0 8 4 13 9 10 14 -9 20
16 9 37 -6 12 -5 17 4 15 7 -2 14 8 16 22 2 14 8 30 14 37 5 6 11 29 14 50 2
21 6 55 8 76 4 32 2 36 -10 26 -8 -6 -14 -26 -15 -43 0 -28 -1 -29 -9 -8 -5
12 -7 28 -5 35 4 9 -7 11 -40 9 -25 -2 -45 -8 -45 -13 0 -5 -18 -9 -40 -9 -22
0 -40 5 -40 10 0 14 -77 13 -82 -2 -3 -8 -32 -8 -118 2 -86 10 -115 10 -118 2
-5 -15 -82 -16 -82 -2 0 14 -77 13 -82 -2 -3 -8 -32 -8 -118 2 -86 10 -115 10
-118 2 -5 -15 -82 -16 -82 -2 0 14 -77 13 -82 -2 -3 -8 -32 -8 -118 2 -86 10
-115 10 -118 2 -5 -15 -82 -16 -82 -2 0 14 -77 13 -82 -2 -3 -8 -32 -8 -118 2
-86 10 -115 10 -118 2 -5 -15 -82 -16 -82 -2 0 14 -77 13 -82 -2 -3 -8 -31 -8
-115 2 -112 13 -139 9 -129 -16 8 -21 -7 -17 -22 6 -7 11 -10 31 -6 45 7 28 0
34 -10 9z m49 -94 c-3 -5 -10 -10 -16 -10 -5 0 -9 5 -9 10 0 6 7 10 16 10 8 0
12 -4 9 -10z m2082 -32 c-3 -8 -6 -5 -6 6 -1 11 2 17 5 13 3 -3 4 -12 1 -19z"/>
<path d="M2376 4421 c-4 -7 -5 -15 -2 -18 9 -9 19 4 14 18 -4 11 -6 11 -12 0z"/>
<path d="M1060 2695 c0 -17 2 -18 24 -9 23 9 20 24 -4 24 -11 0 -20 -7 -20
-15z"/>
<path d="M371 1694 c0 -11 3 -14 6 -6 3 7 2 16 -1 19 -3 4 -6 -2 -5 -13z"/>
</g>
</svg>
